<svg xmlns="http://www.w3.org/2000/svg" viewBox="0 0 16.03 16"><g data-name="图层 17"><path d="M15.18 6.79L4.11 1.07a.46.46 0 00-.61.2L1.79 4.54a.45.45 0 00.21.61h0l9.61 5a.42.42 0 00.47 0l.25-.18 3-2.4a.46.46 0 000-.65z" fill="none" stroke="#dd1919" stroke-miterlimit="10" stroke-width=".92"/><path d="M13.28 11.4a.64.64 0 00-.86.23l-.29.5L1 6.21a.63.63 0 00-.85.26.62.62 0 00.26.84l5 2.66-.91 1.64H1.25v-1.9a.63.63 0 00-.62-.63.63.63 0 00-.63.63v5a.63.63 0 101.25 0v-1.9h3.6a.7.7 0 00.59-.35l1-1.95 5.59 3a.56.56 0 00.21.06h.33l.08-.05a.8.8 0 00.15-.17l.59-1a.64.64 0 00-.11-.95z" fill="#2868f0"/></g></svg>