<svg xmlns="http://www.w3.org/2000/svg" viewBox="0 0 16.03 16"><g data-name="图层 11"><path d="M14.42 3.2H1.62A1.6 1.6 0 000 4.8v6.4a1.6 1.6 0 001.6 1.6h12.8a1.6 1.6 0 001.6-1.6V4.8a1.6 1.6 0 00-1.58-1.6zm.8 8a.8.8 0 01-.8.8H1.62a.8.8 0 01-.8-.8V4.8a.8.8 0 01.8-.8h12.8a.8.8 0 01.8.8z" fill="#dd1919"/><path d="M2.5 6.24l.17.16v1.35l-.17.17-.16-.17V6.4zm0 1.84l.17.17V9.6l-.17.16-.16-.16V8.25zm3.18-2l-.17.17H4.17L4 6.07l.17-.17h1.34zm0 1.92l-.17.17H4.17L4 8l.17-.17h1.34zm0 1.93l-.17.17H4.17L4 9.93l.17-.17h1.34zm.17-3.69L6 6.4v1.35l-.17.17-.17-.17V6.4zm-2 1.84l.15.17V9.6l-.16.16-.17-.16V8.25zm6.17-2l-.17.17H8.5l-.17-.17.17-.18h1.34zm0 3.86l-.17.17H8.5l-.17-.17.17-.17h1.34zm.17-3.69l.17.16v1.34l-.17.17-.19-.17V6.4zm-2 0l.16.16v1.34l-.16.17L8 7.75V6.4zm2 1.84l.17.17V9.6l-.17.16L10 9.6V8.25zm-2 0l.16.17V9.6l-.16.16L8 9.6V8.25zm5.19-2l-.17.17h-1.36l-.17-.17.17-.17h1.34zm0 3.86l-.17.17h-1.36l-.17-.17.17-.17h1.34zm.17-3.69l.17.16v1.33l-.17.17-.17-.17V6.4zm-2 0l.17.16v1.33l-.17.17-.17-.17V6.4zm2 1.84l.17.17V9.6l-.17.16-.17-.16V8.25zm-2 0l.17.17V9.6l-.17.16-.17-.16V8.25zm-4.72-1L7 6.84l.23.24-.23.23zm0 1.84L7 8.69l.23.23-.23.24z" fill="#2868f0"/></g></svg>