<svg xmlns="http://www.w3.org/2000/svg" width="85.853" height="142.003" viewBox="0 0 604 999"><path d="M195 105h213l33 4 32 11 28 16 25 22 21 27 15 30 10 35 2 17 1 19v401l-3 38-10 34-15 31-21 28-25 22-28 16-32 11-16 3-17 1H195l-33-4-32-11-28-16-25-22-20-28-16-31-9-34-3-19-1-19V286l4-36 9-35 16-30 20-27 25-22 28-16 32-11 16-3 17-1z" fill="#7f0000"/><path d="M209 105h174l41 4 27 10 25 17 21 22 18 27 13 30 9 34 3 37v401l-3 38-9 34-13 31-18 27-21 22-25 17-27 11-15 2-14 1H221l-41-3-27-11-24-17-22-22-18-27-13-31-9-34-2-19-1-19v-75l1-38V373l-1-37v-50l3-37 9-34 13-30 18-27 22-22 24-17 27-10 29-4z" fill="#940000"/><path d="M223 105h148l34 4 23 10 21 17 19 22 15 27 11 30 8 34 2 37v401l-2 37-8 35-11 31-15 27-19 22-21 17-23 11-12 3-12 1h-10l-30-1h-78l-30 1-34-4-24-11-20-17-19-22-15-27-11-31-7-35-2-18-1-19V286l3-37 7-34 11-30 15-27 19-22 20-17 24-10 24-4z" fill="#ab0000"/><path d="M237 105h24l9-1h65l32 1 30 8 26 22 15 23 13 27 9 30 6 35 2 36v75l1 13v226l-1 37v51l-2 37-6 34-9 31-13 27-15 22-26 24-20 7-10 1h-8l-33-1h-56l-33 1-30-8-27-24-15-22-12-27-9-31-6-34-2-18V286l2-36 6-35 9-30 12-27 15-23 27-22 30-8z" fill="#bf0000"/><path d="M251 104h77l33 1 23 14 19 27 11 25 9 29 6 32 3 36 1 31v389l-2 37-5 34-7 31-10 27-12 22-21 24-15 7-8 1h-6l-32-1h-72l-23-14-20-27-10-25-9-29-6-33-3-35-1-19v-75l1-38V374l-1-38v-50l2-36 5-35 7-30 10-27 12-23 20-23 24-8z" fill="#d40000"/><path d="M265 104h56l30 4 20 27 13 36 6 29 4 32 2 36 1 31v389l-1 37-4 34-5 31-7 27-14 32-21 21-6 1h-60l-31-8-15-23-13-36-6-29-4-33-2-35-1-19v-75l1-38V374l-1-38v-50l2-36 3-35 5-30 7-27 14-32 21-21 6-1z" fill="#eb0000"/><path d="M279 104h46l4 1 13 21 8 32 5 27 3 31 2 34 1 18v421l-1 36-2 35-3 31-5 27-8 31-13 21-4 1h-46l-4-1-14-21-8-31-4-27-4-31-2-35V250l2-34 4-31 4-27 8-32 14-21 4-1z" fill="red"/><path d="M194 104h215l34 4 31 11 28 16 25 23 20 27 16 31 9 34 3 18 1 19v402l-4 36-9 35-16 31-20 27-25 22-28 17-31 11-17 2-17 1H194l-34-3-31-11-28-17-25-22-20-27-15-31-10-35-2-18-1-18V287l3-37 10-34 15-31 20-27 25-23 28-16 31-11 17-3 17-1M29 286h547M29 687h547" fill="none" stroke="#000" stroke-width="2"/><path d="M95 970h405V841H95v129z" fill="#7f0000"/><path d="M125 970h346V841h-65l-10-1H200l-32 1h-43v129z" fill="#940000"/><path d="M153 970h27l36-1h163l36 1h27v-25l1-8v-64l-1-33H153v130z" fill="#ab0000"/><path d="M182 970h43l15-1h123l14 1h36v-25l1-8v-64l-1-17v-16H182v130z" fill="#bf0000"/><path d="M210 970h33l11-1h87l11 1h33V840H210v24l1 16v57l-1 16v17z" fill="#d40000"/><path d="M239 969h117V840H239v129z" fill="#eb0000"/><path d="M267 970h60V840h-60v130z" fill="red"/><path d="M182 871h46l13 2 12 9 7 11 3 15-1 10-5 12-10 10-12 5-7 1h-46l-12-3-10-7-7-12-3-13v-10l6-14 9-10 11-6h6zM364 871h46l13 2 11 9 8 11 3 15-1 10-5 12-10 10-13 5-6 1h-46l-13-3-10-7-7-12-3-13 1-10 5-14 8-10 12-6h7z" fill="#7f7f7f" stroke="#000" stroke-width="2"/><path d="M95 970h403V840H95v130" fill="none" stroke="#000" stroke-width="2"/><path d="M190 42h225v64H190V42z" fill="#7f0000"/><path d="M206 42h37l12-1h96l12 1h36v63H206v-4l1-12V57l-1-11v-4z" fill="#940000"/><path d="M223 42h30l10-1h80l9 1h30v12l1 3v32l-1 12v4H223V42z" fill="#ab0000"/><path d="M239 42h24l8-1h63l16 1h16v63H239v-4l1-12V57l-1-11v-4z" fill="#bf0000"/><path d="M256 42h17l6-1h47l12 1h12v63h-94V42z" fill="#d40000"/><path d="M272 42h12l3-1h31l12 1h3v12l1 3v32l-1 12v4h-61V42z" fill="#eb0000"/><path d="M288 42h29v64h-29V42z" fill="red"/><path d="M190 42h225v64H190V42" fill="none" stroke="#000" stroke-width="2"/><path d="M180 28h20v49h-20V28zM219 28h20v49h-20V28zM258 28h20v49h-20V28zM297 28h20v49h-20V28zM336 28h20v49h-20V28zM376 28h19v49h-19V28zM415 28h19v49h-19V28z" fill="#666" stroke="#000" stroke-width="2"/><path d="M151 38h307v29H151V38z" fill="#7f7f7f"/><path d="M189 37h232v29H189V37z" fill="#999"/><path d="M226 37h158v29H226V37z" fill="#b2b2b2"/><path d="M263 38h83v29h-83V38z" fill="#ccc"/><path d="M151 38h307v29H151V38M151 52h307" fill="none" stroke="#000" stroke-width="2"/></svg>