<svg id="图层_1" data-name="图层 1" xmlns="http://www.w3.org/2000/svg" viewBox="0 0 16.03 16"><defs><style>.cls-4{fill:none}</style></defs><path d="M12.63.51A.36.36 0 1012 .23l-.5 1.18a.35.35 0 00.19.47.32.32 0 00.14 0 .37.37 0 00.33-.23zM15.78 4a.36.36 0 00.22-.47.37.37 0 00-.47-.19l-1.16.49a.36.36 0 00-.18.48.34.34 0 00.32.21h.14zm-.24 4.68a.31.31 0 00.13 0 .37.37 0 00.14-.7l-1.17-.47a.35.35 0 00-.46.19.35.35 0 00.19.47zm-10-4.11a.34.34 0 00.35-.36.34.34 0 00-.22-.33l-1.11-.46a.36.36 0 00-.27.66l1.13.47zm2.78-2.65a.37.37 0 00.19-.47L8 .28a.36.36 0 00-.45-.19.36.36 0 00-.19.47l.49 1.17a.35.35 0 00.47.19z" fill="#dd1919"/><path d="M9.53 8.81a2.7 2.7 0 00.49 0 3 3 0 10-3-3 3 3 0 00.44 1.56" stroke-miterlimit="10" stroke="#dd1919" stroke-width=".89" fill="none"/><path d="M12.54 15H3a2 2 0 01-1.38-.56 1.84 1.84 0 010-2.68 2 2 0 011.36-.57.33.33 0 00.33-.34v-.07a3.37 3.37 0 013.35-3.32A3.41 3.41 0 019.9 9.7a.33.33 0 000 .42.36.36 0 00.44.07.31.31 0 00.15-.39 1.19 1.19 0 01.91-.42h.16a1.14 1.14 0 011 1.12 1.24 1.24 0 010 .27.28.28 0 00.05.26.31.31 0 00.23.14 1.91 1.91 0 01-.3 3.83z" stroke="#2868f0" stroke-miterlimit="10" fill="none"/><path class="cls-4" d="M12.58 6a2.5 2.5 0 01-1.13 2.11 1.68 1.68 0 00-1 .3 3.82 3.82 0 00-2.92-2.08v-.3a2.54 2.54 0 115.07 0zM14.52 13.08a2 2 0 01-2 1.91H3a2 2 0 01-1.38-.56 1.84 1.84 0 010-2.68 2 2 0 011.36-.57.33.33 0 00.33-.34v-.07a3.37 3.37 0 013.35-3.31A3.41 3.41 0 019.9 9.7a.33.33 0 000 .42.36.36 0 00.44.07.31.31 0 00.15-.39 1.19 1.19 0 01.91-.42h.16a1.14 1.14 0 011 1.12 1.24 1.24 0 010 .27.28.28 0 00.05.26.31.31 0 00.23.14 1.94 1.94 0 011.68 1.91z"/></svg>